<svg xmlns="http://www.w3.org/2000/svg" width="1200" height="630" viewBox="0 0 1200 630" role="img" aria-labelledby="title desc">
  <title id="title">Moisés Núñez — Abogado · Asesor Inmobiliario</title>
  <desc id="desc">Tarjeta premium legal e inmobiliaria con fondo oscuro y acentos dorados.</desc>
  <defs>
    <linearGradient id="bg" x1="0" y1="0" x2="1" y2="1">
      <stop offset="0" stop-color="#080B10"/>
      <stop offset="0.55" stop-color="#101927"/>
      <stop offset="1" stop-color="#07090D"/>
    </linearGradient>
    <radialGradient id="gold" cx="0" cy="0" r="1" gradientUnits="userSpaceOnUse" gradientTransform="translate(980 110) rotate(110) scale(430 330)">
      <stop stop-color="#D6B267" stop-opacity="0.42"/>
      <stop offset="1" stop-color="#D6B267" stop-opacity="0"/>
    </radialGradient>
    <style>
      .serif{font-family: Georgia, 'Times New Roman', serif}.sans{font-family: Arial, Helvetica, sans-serif}
    </style>
  </defs>
  <rect width="1200" height="630" fill="url(#bg)"/>
  <rect width="1200" height="630" fill="url(#gold)"/>
  <g opacity="0.14" stroke="#D6B267" stroke-width="1">
    <path d="M0 80H1200M0 160H1200M0 240H1200M0 320H1200M0 400H1200M0 480H1200M0 560H1200"/>
    <path d="M80 0V630M160 0V630M240 0V630M320 0V630M400 0V630M480 0V630M560 0V630M640 0V630M720 0V630M800 0V630M880 0V630M960 0V630M1040 0V630M1120 0V630"/>
  </g>
  <rect x="70" y="64" width="1060" height="502" fill="rgba(255,255,255,0.035)" stroke="#D6B267" stroke-opacity="0.38"/>
  <rect x="96" y="90" width="1008" height="450" fill="none" stroke="#FFFFFF" stroke-opacity="0.10"/>
  <text x="130" y="164" class="sans" fill="#F1D99B" font-size="24" font-weight="700" letter-spacing="6">LEGAL · REAL ESTATE</text>
  <text x="128" y="302" class="serif" fill="#F7EFE2" font-size="92" font-weight="600">Moisés Núñez</text>
  <text x="132" y="366" class="sans" fill="#F1D99B" font-size="32" font-weight="700">Abogado · Asesor Inmobiliario</text>
  <text x="132" y="434" class="sans" fill="#A9B0BA" font-size="29">Asesoría legal e inmobiliaria con estrategia,</text>
  <text x="132" y="474" class="sans" fill="#A9B0BA" font-size="29">confianza y visión patrimonial.</text>
  <g transform="translate(880 186)">
    <rect x="0" y="0" width="176" height="176" fill="rgba(214,178,103,0.12)" stroke="#D6B267" stroke-opacity="0.48"/>
    <text x="78" y="118" text-anchor="middle" class="serif" fill="#F7EFE2" font-size="92" font-weight="600" letter-spacing="-12">MN</text>
    <path d="M46 136H130" stroke="#D6B267" stroke-opacity="0.65"/>
  </g>
</svg>
